<?xml version="1.0" encoding="UTF-8"?>
<svg id="Layer_2" data-name="Layer 2" xmlns="http://www.w3.org/2000/svg" viewBox="0 0 94.89 90.63">
  <defs>
    <style>
      .cls-1 {
        fill: #41281a;
      }
    </style>
  </defs>
  <g id="Layer_1-2" data-name="Layer 1">
    <path class="cls-1" d="M49.57,0c-.13.13,1.64.16,2.28.22,6.24.58,12.23,2.51,17.77,5.46,6.69,3.56,12.4,8.62,16.69,14.89,4.94,7.22,7.9,15.63,8.45,24.36l.08,1.23c.08,1.29.08,2.59,0,3.89l-.07,1.21c-.74,12.08-6.41,23.5-15.94,31-5.67,4.46-12.85,6.38-20,5.39-8.16-1.13-15.34-5.78-20.09-12.42-3.89-5.44-5.24-12.28-3.67-18.78,1.94-8.04,8.13-14.03,16.51-14.74,2.72-.23,5.27.04,7.86.84.87.27,3.39.87,3.99.18.76-.87-.57-3.59-1.14-4.57-1.29-2.22-3.07-4-5.17-5.49-3.97-2.8-8.63-4.2-13.46-4.44-9.11-.46-17.75,3.11-23.86,9.86-7.18,7.94-10.21,19.02-8.08,29.55,1.27,6.28,4.32,11.92,8.77,16.49,2.38,2.45,5.01,4.41,7.79,6.53-4.42-1.53-8.32-3.97-11.8-6.91C7.01,75.74.66,63.68.11,51.24c-.01-.25-.03-.49-.11-.6v-4.51c.05-.26.09-.52.11-.85C1.19,26.3,13.57,9.69,31.31,2.96c4.56-1.73,9.23-2.61,13.99-2.96h4.27Z"/>
  </g>
</svg>